<svg width="13" height="15" viewBox="0 0 13 15" fill="none" xmlns="http://www.w3.org/2000/svg">
<path d="M6.49993 0C3.37538 0 0.833252 2.24306 0.833252 5.00001C0.833252 5.82765 1.06777 6.64825 1.51358 7.3761L6.19005 14.8389C6.2523 14.9384 6.37094 15 6.49993 15C6.62892 15 6.74756 14.9384 6.80981 14.8389L11.488 7.37364C11.9321 6.64825 12.1666 5.82762 12.1666 4.99998C12.1666 2.24306 9.62448 0 6.49993 0ZM6.49993 7.5C4.93766 7.5 3.66661 6.37849 3.66661 5.00001C3.66661 3.62153 4.93766 2.50002 6.49993 2.50002C8.0622 2.50002 9.33325 3.62153 9.33325 5.00001C9.33325 6.37849 8.0622 7.5 6.49993 7.5Z" fill="#13A3D9"/>
</svg>
