<svg width="15" height="15" viewBox="0 0 15 15" fill="none" xmlns="http://www.w3.org/2000/svg">
<path d="M14.5917 10.8146L12.4984 8.75814C11.7508 8.0237 10.4799 8.31751 10.1809 9.27224C9.95658 9.93326 9.20898 10.3005 8.53613 10.1536C7.04092 9.78635 5.02239 7.87682 4.64859 6.3345C4.42431 5.67348 4.87287 4.93905 5.54571 4.71874C6.5176 4.42497 6.81664 3.17643 6.06904 2.442L3.97574 0.385578C3.37766 -0.128526 2.48053 -0.128526 1.95721 0.385578L0.536758 1.78101C-0.883692 3.24988 0.68628 7.14238 4.20002 10.5942C7.71377 14.0461 11.6761 15.6619 13.1713 14.193L14.5917 12.7975C15.1151 12.21 15.1151 11.3287 14.5917 10.8146Z" fill="#13A3D9"/>
</svg>
